<svg xmlns="http://www.w3.org/2000/svg" viewBox="0 0 24 24" width="24" height="24">
  <path d="M12 2C11.4477 2 11 2.44772 11 5.63569 9.21074 6.11304 8.41421 6.70711L3.12132 12L5 14H4C3.44772 14 3 14.4477 3 15V17C3 17.5523 3.44772 18 4 18H6C6.55228 18 7 17.5523 7 17V16H10.7071L16 21.2929C16.3905 21.6834 17.0237 21.6834 17.4142 21.2929L19.2929 19.4142C19.6834 19.0237 19.6834 18.3905 19.2929 18L14 12.7071V9H15C15.5523 9 16 8.55228 16 8V6C16 5.44772 15.5523 5 15 5H14L11.2929 2.29289C11.1054 2.10536 11 1.851 11 1.58579V1C11 0.447716 11.4477 0 12 0H13V1.58579C13 1.851 12.8946 2.10536 12.7071 2.29289L12 2ZM4 16V15H5V16H4ZM8.29289 9.70711L4 14H6.58579L9.29289 11.2929C9.68342 10.9024 9.68342 10.2692 9.29289 9.87868L8.29289 9.70711ZM10.7071 10.7071L7.70711 13.7071L13 18L15.7071 15.2929L10.7071 10.7071ZM13 7V4H12V7H13Z" fill="#000000"/>
</svg>
